<svg width="44" height="44" viewBox="0 0 44 44" fill="none" xmlns="http://www.w3.org/2000/svg">
<rect x="0.216797" y="0.345459" width="43.2" height="43.2" rx="4.90909" fill="#EA4C89" fill-opacity="0.08"/>
<g clip-path="url(#clip0_434_1992)">
<path d="M21.8162 12.1283C16.4024 12.1283 11.998 16.5327 11.998 21.9464C11.998 27.3601 16.4024 31.7645 21.8162 31.7645C27.23 31.7645 31.6344 27.3601 31.6344 21.9464C31.6344 16.5327 27.23 12.1283 21.8162 12.1283ZM28.2143 16.7587C29.3166 18.1155 29.9952 19.828 30.0516 21.6948C28.0098 21.2721 26.161 21.3217 24.5289 21.6417C24.2334 20.9506 23.9275 20.2922 23.6187 19.6699C25.3961 18.9042 26.9435 17.9262 28.2143 16.7587ZM27.1083 15.6346C25.8469 16.7861 24.385 17.6386 22.8882 18.268C21.7895 16.2589 20.7384 14.746 20.098 13.8862C20.6525 13.7681 21.2271 13.7047 21.8162 13.7047C23.8295 13.7047 25.6755 14.4313 27.1083 15.6346ZM18.5059 14.4011C18.9894 15.0276 20.1411 16.5965 21.3783 18.8286C18.269 19.8416 15.252 20.0122 13.8022 20.0281C14.4065 17.5037 16.1743 15.428 18.5059 14.4011ZM13.5831 21.6085C13.5986 21.6085 13.6137 21.6086 13.6295 21.6086C14.6313 21.6086 16.4666 21.5412 18.6274 21.1472C19.8601 20.9224 21.0291 20.6199 22.1259 20.2449C22.4115 20.814 22.6953 21.4143 22.9706 22.0435C21.4347 22.5379 20.1396 23.2494 19.1136 23.9559C17.3932 25.1406 16.188 26.455 15.5299 27.2677C14.3115 25.8307 13.5745 23.9735 13.5745 21.9464C13.5745 21.8331 13.5784 21.7207 13.5831 21.6085ZM16.6659 28.3738C17.2325 27.6604 18.3857 26.362 20.0538 25.2227C21.1875 24.4483 22.3603 23.8731 23.5677 23.4955C24.2683 25.3113 24.8664 27.3176 25.223 29.448C24.1838 29.9217 23.0309 30.188 21.8162 30.188C19.8686 30.188 18.0779 29.5076 16.6659 28.3738ZM26.6732 28.5991C26.3057 26.6426 25.7577 24.8029 25.1241 23.1216C26.6826 22.8587 28.2934 22.9129 29.9478 23.2845C29.591 25.4589 28.381 27.3489 26.6732 28.5991Z" fill="#EA4C89"/>
</g>
<defs>
<clipPath id="clip0_434_1992">
<rect width="19.6364" height="19.6364" fill="white" transform="translate(11.998 12.1273)"/>
</clipPath>
</defs>
</svg>
