<svg width="45" height="44" viewBox="0 0 45 44" fill="none" xmlns="http://www.w3.org/2000/svg">
<rect x="0.367188" y="0.000976562" width="44" height="44" rx="5" fill="white" fill-opacity="0.1"/>
<g clip-path="url(#clip0_434_1947)">
<path d="M32.3672 15.7997C31.6234 16.126 30.8309 16.3422 30.0047 16.4472C30.8547 15.9397 31.5034 15.1422 31.8084 14.181C31.0159 14.6535 30.1409 14.9872 29.2084 15.1735C28.4559 14.3722 27.3834 13.876 26.2134 13.876C23.9434 13.876 22.1159 15.7185 22.1159 17.9772C22.1159 18.3022 22.1434 18.6147 22.2109 18.9122C18.8022 18.746 15.7859 17.1122 13.7597 14.6235C13.4059 15.2372 13.1984 15.9397 13.1984 16.696C13.1984 18.116 13.9297 19.3747 15.0197 20.1035C14.3609 20.091 13.7147 19.8997 13.1672 19.5985C13.1672 19.611 13.1672 19.6272 13.1672 19.6435C13.1672 21.636 14.5884 23.291 16.4522 23.6722C16.1184 23.7635 15.7547 23.8072 15.3772 23.8072C15.1147 23.8072 14.8497 23.7922 14.6009 23.7372C15.1322 25.361 16.6397 26.5547 18.4322 26.5935C17.0372 27.6847 15.2659 28.3422 13.3484 28.3422C13.0122 28.3422 12.6897 28.3272 12.3672 28.286C14.1834 29.4572 16.3359 30.126 18.6572 30.126C26.2022 30.126 30.3272 23.876 30.3272 18.4585C30.3272 18.2772 30.3209 18.1022 30.3122 17.9285C31.1259 17.351 31.8097 16.6297 32.3672 15.7997Z" fill="white"/>
</g>
<defs>
<clipPath id="clip0_434_1947">
<rect width="20" height="20" fill="white" transform="translate(12.3672 12.001)"/>
</clipPath>
</defs>
</svg>
